<?xml version="1.0" encoding="UTF-8"?>
<svg id="_Слой_2" data-name="Слой 2" xmlns="http://www.w3.org/2000/svg" viewBox="0 0 384.65 87.2">
  <defs>
    <style>
      .cls-1 {
        stroke-width: 1.78px;
      }

      .cls-1, .cls-2, .cls-3, .cls-4 {
        fill: #000;
      }

      .cls-1, .cls-2, .cls-5, .cls-4, .cls-6 {
        stroke: #000;
        stroke-linecap: round;
        stroke-miterlimit: 10;
      }

      .cls-2 {
        stroke-width: 1.78px;
      }

      .cls-3 {
        stroke-width: 0px;
      }

      .cls-5 {
        stroke-dasharray: 0 0 14.46 14.46;
      }

      .cls-5, .cls-6 {
        fill: none;
        stroke-width: 1.04px;
      }

      .cls-4 {
        stroke-width: 1.72px;
      }
    </style>
  </defs>
  <g id="_Слой_1-2" data-name="Слой 1">
    <g>
      <line class="cls-2" x1="383.76" y1="1.6" x2="383.76" y2="86.31"/>
      <line class="cls-1" x1=".89" y1=".89" x2=".89" y2="86.31"/>
      <line class="cls-2" x1="81.14" y1="1.6" x2="81.14" y2="86.31"/>
      <line class="cls-2" x1="62.94" y1="1.6" x2="62.94" y2="86.31"/>
      <line class="cls-2" x1="132.66" y1="1.6" x2="132.66" y2="86.31"/>
      <line class="cls-2" x1="193.7" y1="1.6" x2="193.7" y2="86.31"/>
      <line class="cls-2" x1="254.75" y1="1.6" x2="254.75" y2="86.31"/>
      <line class="cls-2" x1="306.12" y1="1.6" x2="306.12" y2="86.31"/>
      <line class="cls-4" x1=".89" y1="86.31" x2="62.94" y2="86.31"/>
      <line class="cls-4" x1="80.97" y1="86.31" x2="383.76" y2="86.31"/>
      <g>
        <path class="cls-3" d="m328.56,54.8l-7.62-3.44,1.61-3.56c.25-.56.57-1,.94-1.31s.79-.49,1.25-.54.95.04,1.46.27c.5.23.89.53,1.16.91.27.38.42.81.44,1.31.02.49-.1,1.02-.35,1.58l-.84,1.85,2.71,1.23-.77,1.71Zm-3.29-3.54l.7-1.54c.2-.43.25-.8.17-1.1-.08-.3-.31-.54-.68-.7-.38-.17-.7-.18-.98-.05-.28.14-.52.42-.71.86l-.7,1.54,2.2,1Z"/>
        <path class="cls-3" d="m331.84,47.54l-5.36-2.42.69-1.53,3.48,1.57-.07.16-2.31-4.17.65-1.44,5.36,2.42-.69,1.54-3.48-1.57.08-.17,2.3,4.18-.65,1.44Z"/>
        <path class="cls-3" d="m335.52,39.42l-4.04-1.83-.82,1.8-1.32-.6,2.39-5.29,1.32.6-.82,1.8,4.04,1.83-.76,1.69Z"/>
        <path class="cls-3" d="m337.51,35.02l-5.36-2.42.66-1.46,3.7-.41-2.14-3.05.66-1.45,5.36,2.42-.67,1.48-3.35-1.52.07-.16,1.81,2.59-.35.78-3.14.35.07-.15,3.35,1.51-.67,1.48Z"/>
        <path class="cls-3" d="m341.09,27.1l-5.36-2.42.76-1.69,1.68.76.61-1.35c.33-.73.74-1.22,1.21-1.45.47-.23,1.01-.21,1.6.05.37.17.66.41.86.71.2.31.3.66.31,1.07,0,.4-.09.83-.29,1.29l-1.37,3.04Zm2.68-5.92l-5.36-2.42.76-1.69,5.36,2.42-.76,1.69Zm-3.01,3.75l.47-1.05c.14-.31.19-.58.14-.8-.04-.22-.2-.4-.47-.52-.27-.12-.49-.12-.68,0s-.35.33-.49.64l-.47,1.05,1.5.68Z"/>
        <path class="cls-3" d="m334.33,67.63l-7.62-3.45.77-1.71,3.05,1.38,1.58-3.5-3.05-1.38.78-1.72,7.62,3.44-.78,1.72-3.15-1.42-1.58,3.5,3.15,1.42-.77,1.71Z"/>
        <path class="cls-3" d="m340.31,59.59l-2-2.31.83.38-6.7-.13.8-1.77,4.39.28-.09.21-3.1-3.13.77-1.7,5.88,6.45-.78,1.73Z"/>
        <path class="cls-3" d="m342.78,54.12l-7.31-3.3.71-1.58,1.04.47-.02.04c-.29-.29-.47-.65-.52-1.07-.06-.42.01-.85.21-1.28.22-.48.52-.85.92-1.1s.84-.38,1.34-.39c.5,0,1.04.12,1.61.38.56.25,1,.57,1.33.95s.54.8.61,1.27c.07.46,0,.94-.22,1.43-.19.42-.45.74-.79.96-.34.22-.69.32-1.07.31l.03-.07,2.9,1.31-.76,1.69Zm-1.8-4.26c.17-.37.17-.73,0-1.06-.17-.33-.5-.62-1-.84-.51-.23-.93-.29-1.28-.19-.35.1-.61.34-.78.72-.17.37-.17.72-.02,1.05.15.33.48.62.99.84s.94.29,1.3.19.63-.33.79-.7Z"/>
        <path class="cls-3" d="m345.36,43.55c-.3.66-.67,1.18-1.11,1.54-.44.37-.93.57-1.46.63-.53.06-1.08-.04-1.65-.3-.54-.24-.97-.58-1.28-1-.31-.42-.49-.9-.54-1.43-.05-.53.05-1.08.31-1.64.24-.53.55-.93.95-1.22.4-.29.85-.45,1.36-.48.51-.03,1.05.09,1.62.34l.43.19-1.83,4.05-.9-.41,1.27-2.81.09.22c-.45-.2-.83-.25-1.14-.15s-.55.33-.72.7c-.12.27-.17.52-.13.77.03.24.14.47.31.68.18.21.43.38.75.53l.12.05c.37.17.7.25.98.24s.54-.11.76-.3c.22-.19.41-.47.58-.83.13-.28.22-.59.27-.92.06-.33.05-.65,0-.96l1.31.06c.07.37.08.78,0,1.22-.07.44-.19.85-.36,1.23Z"/>
        <path class="cls-3" d="m346.84,39.97l-7.62-3.44.77-1.71,6.17,2.79,1.6-3.53,1.45.65-2.37,5.24Z"/>
        <path class="cls-3" d="m350.94,31.22c-.26.58-.61,1.04-1.04,1.37s-.9.51-1.43.56-1.07-.06-1.63-.32c-.57-.26-1.01-.6-1.32-1.02-.31-.42-.48-.9-.52-1.44-.03-.54.08-1.09.35-1.68.26-.58.61-1.04,1.03-1.37s.89-.51,1.42-.56c.53-.05,1.07.06,1.64.31.56.25,1,.6,1.31,1.02.31.43.49.91.53,1.44.04.53-.08,1.09-.34,1.67Zm-1.29-.58c.17-.37.17-.72,0-1.06-.16-.34-.49-.62-.99-.84s-.92-.28-1.27-.18c-.35.11-.6.34-.77.71-.17.37-.18.72-.03,1.05.15.33.47.61.97.83.5.23.93.29,1.28.18.36-.1.62-.34.79-.71Z"/>
        <path class="cls-3" d="m353.59,25.35c-.18.4-.42.72-.71.96s-.62.4-.96.46-.68.02-1.01-.13c-.39-.18-.65-.43-.79-.75-.14-.32-.15-.74-.05-1.25.1-.51.33-1.15.67-1.92l.29-.64.88.4-.27.59c-.13.28-.22.53-.29.74-.07.21-.1.4-.11.55,0,.15.01.28.07.38.05.1.14.18.27.23.21.09.41.09.6,0,.19-.1.34-.28.46-.54.1-.22.14-.43.12-.65s-.09-.42-.22-.6c-.13-.19-.31-.33-.53-.43l-1.2-.54c-.32-.14-.58-.16-.79-.05-.21.11-.4.36-.57.74-.13.28-.22.6-.28.96-.06.36-.07.75-.05,1.17l-1.31-.07c-.03-.28-.03-.57,0-.89.03-.32.08-.64.17-.97.09-.32.19-.63.33-.92.25-.55.54-.97.87-1.27.33-.3.71-.47,1.13-.51s.91.07,1.45.31l3.16,1.43-.67,1.49-1.07-.48v-.02c.22.17.38.38.48.61.11.23.16.49.16.76,0,.27-.07.56-.21.86Z"/>
        <path class="cls-3" d="m356.6,18.69c-.22.48-.52.85-.92,1.11s-.84.39-1.35.39-1.04-.12-1.61-.38c-.56-.25-1.01-.57-1.34-.96-.33-.38-.53-.8-.6-1.27-.07-.46,0-.93.22-1.4.19-.43.46-.75.79-.97.33-.22.69-.33,1.06-.32l-.03.06-3.2-1.45.76-1.69,7.62,3.44-.71,1.58-1.05-.47.02-.04c.31.3.49.66.55,1.08.06.42,0,.84-.2,1.27Zm-1.04-1.07c.17-.38.17-.73.01-1.06-.16-.33-.49-.62-1-.84-.51-.23-.94-.3-1.29-.19-.35.1-.61.34-.78.71-.17.37-.17.72-.02,1.05.15.33.48.62,1,.85.5.23.94.29,1.29.19.36-.1.62-.34.79-.71Z"/>
        <path class="cls-3" d="m339.99,80.71l-7.62-3.44,1.61-3.55c.25-.56.57-1,.94-1.31.38-.31.79-.49,1.25-.54.46-.05.95.04,1.46.28.5.23.89.53,1.16.91.27.38.42.81.44,1.31.02.49-.1,1.02-.35,1.58l-.84,1.85,2.71,1.23-.77,1.71Zm-3.29-3.54l.7-1.54c.2-.43.25-.8.17-1.1s-.31-.54-.68-.7c-.38-.17-.7-.19-.98-.05s-.52.42-.71.86l-.7,1.54,2.2,1Z"/>
        <path class="cls-3" d="m344.64,70.73c-.3.66-.67,1.18-1.11,1.54-.44.37-.93.58-1.46.63-.53.06-1.08-.04-1.65-.3-.54-.24-.97-.58-1.28-1-.31-.42-.49-.9-.54-1.43-.05-.53.05-1.08.31-1.64.24-.53.55-.93.95-1.22.4-.29.85-.45,1.36-.48.51-.03,1.05.09,1.62.34l.43.2-1.83,4.05-.9-.41,1.27-2.81.09.22c-.45-.2-.83-.25-1.14-.15-.31.1-.55.33-.72.7-.12.27-.17.52-.13.77.03.25.14.47.31.68.18.21.43.38.75.53l.12.05c.37.17.7.25.98.24.29,0,.54-.11.76-.3.22-.19.41-.47.58-.83.13-.28.22-.59.27-.92.06-.33.05-.65,0-.96l1.31.06c.08.37.08.78,0,1.21-.07.44-.19.85-.36,1.23Z"/>
        <path class="cls-3" d="m346.12,67.14l-5.36-2.42,1.95-4.32,1.32.6-1.19,2.64,4.04,1.83-.76,1.69Z"/>
        <path class="cls-3" d="m348.53,61.82l-5.36-2.42.69-1.54,3.48,1.57-.07.16-2.31-4.17.65-1.44,5.36,2.42-.69,1.53-3.48-1.57.08-.17,2.3,4.18-.65,1.44Z"/>
        <path class="cls-3" d="m352.98,52.29c-.26.58-.61,1.04-1.04,1.37s-.9.52-1.43.56c-.53.05-1.08-.06-1.65-.32-.57-.26-1.01-.6-1.32-1.03-.31-.43-.48-.91-.51-1.44-.03-.53.09-1.09.36-1.67.17-.38.39-.71.65-1.02.26-.31.54-.53.82-.66l.97,1c-.22.12-.43.27-.62.47-.19.2-.33.4-.42.62-.2.43-.22.83-.08,1.18.14.36.45.64.93.86.47.21.89.26,1.25.13.37-.12.65-.4.85-.83.1-.22.16-.46.18-.73.02-.27,0-.53-.06-.76l1.4.06c.08.3.09.66.04,1.05-.05.4-.16.79-.33,1.16Z"/>
        <path class="cls-3" d="m354.72,48.12l-4.04-1.83-.82,1.8-1.32-.6,2.39-5.3,1.32.6-.82,1.8,4.04,1.83-.76,1.69Z"/>
        <path class="cls-3" d="m358.66,44.59l-7.31-3.3.71-1.58,1.04.47-.02.04c-.29-.29-.47-.65-.52-1.07-.05-.42.01-.85.21-1.28.22-.48.52-.85.91-1.1.39-.25.84-.38,1.34-.39.5,0,1.04.12,1.61.38.55.25,1,.57,1.33.95.33.38.54.8.61,1.27.07.46,0,.94-.22,1.43-.19.42-.45.74-.79.96-.34.22-.7.32-1.07.31l.03-.06,2.9,1.31-.76,1.69Zm-1.8-4.26c.17-.38.17-.73,0-1.06-.16-.33-.5-.62-1-.84-.5-.23-.93-.29-1.28-.19-.35.1-.61.34-.78.71-.17.37-.17.72-.02,1.05.15.33.48.61.99.84.5.23.94.29,1.3.19.36-.1.63-.34.79-.7Z"/>
        <path class="cls-3" d="m360.87,34.85c-.18.4-.42.72-.71.96-.3.24-.61.4-.96.46-.34.06-.68.02-1.01-.13-.39-.18-.65-.42-.79-.75-.14-.32-.15-.74-.05-1.25s.33-1.15.67-1.92l.29-.64.87.4-.27.59c-.13.28-.22.53-.29.74-.07.21-.1.4-.11.55,0,.15.01.28.07.38s.15.18.27.23c.21.09.41.09.59,0s.34-.28.46-.54c.1-.22.14-.43.12-.65-.02-.22-.09-.42-.22-.6-.13-.19-.31-.33-.53-.43l-1.2-.54c-.32-.14-.58-.16-.79-.05-.21.11-.4.36-.57.74-.13.28-.22.6-.28.96-.06.36-.07.75-.05,1.17l-1.31-.07c-.03-.28-.03-.57,0-.89.03-.32.08-.65.17-.97.09-.33.2-.63.33-.92.25-.55.54-.97.87-1.27.33-.3.71-.47,1.14-.51.42-.04.91.07,1.45.31l3.16,1.43-.67,1.49-1.07-.48v-.02c.22.17.38.38.48.61.11.23.16.49.16.76,0,.27-.07.56-.21.86Z"/>
        <path class="cls-3" d="m366.44,25.98l-1.42-.64-2.15,4.76-5.36-2.42.76-1.69,4.05,1.83.87-1.92-4.05-1.83.76-1.69,4.05,1.83.4-.89,2.72,1.23-.64,1.43Z"/>
        <path class="cls-3" d="m366.13,22.89l-5.36-2.42.69-1.54,3.48,1.57-.07.16-2.31-4.17.65-1.44,5.36,2.42-.69,1.54-3.48-1.57.08-.17,2.3,4.18-.65,1.44Z"/>
        <path class="cls-3" d="m369.06,16.41l-.99-1.41c-.18-.25-.29-.51-.34-.77-.05-.26-.03-.49.06-.69l.09-.2.06.03c-.17.37-.38.66-.62.88-.24.22-.52.36-.82.4-.3.05-.63,0-.98-.16-.53-.24-.87-.62-1-1.13-.13-.52-.04-1.13.28-1.83l1.36-3,5.36,2.42-.71,1.58-1.72-.78-.22.49c-.08.17-.1.35-.07.53.03.18.1.35.21.51l.89,1.25-.85,1.88Zm-1.53-4.07l.49-1.08-1.47-.66-.49,1.08c-.14.32-.19.58-.13.8.06.22.2.38.43.48s.45.11.65,0,.37-.31.52-.63Z"/>
      </g>
      <g>
        <path class="cls-3" d="m214.86,58.62l-6.77-3.06.64-1.41,5.32-.35-.09.19-3.26-4.21.62-1.38,6.77,3.06-.63,1.4-4.48-2.02.05-.12,2.58,3.4-.4.89-4.26.32.06-.12,4.48,2.02-.63,1.39Z"/>
        <path class="cls-3" d="m219.61,48.38c-.16.35-.37.64-.63.85s-.55.35-.85.41c-.3.06-.6.02-.9-.12-.35-.16-.58-.38-.7-.66-.12-.29-.14-.66-.05-1.11.09-.46.29-1.02.6-1.7l.26-.57.78.35-.24.53c-.11.25-.2.47-.26.66-.06.19-.09.35-.1.49,0,.14.01.25.06.34.05.09.13.16.24.21.19.08.36.08.53,0,.17-.09.3-.25.41-.48.09-.19.12-.38.11-.58-.02-.19-.08-.37-.2-.53-.12-.16-.27-.29-.47-.38l-1.07-.48c-.28-.13-.51-.14-.7-.04-.18.1-.35.32-.51.66-.11.25-.2.54-.25.85-.05.32-.07.67-.04,1.04l-1.16-.06c-.03-.24-.03-.51,0-.79.03-.29.08-.57.15-.86s.17-.56.29-.82c.22-.49.48-.86.77-1.13.29-.27.63-.42,1.01-.45.38-.03.81.06,1.29.28l2.8,1.27-.6,1.33-.95-.43v-.02c.19.15.33.33.43.54.09.21.14.43.14.68s-.06.5-.18.77Z"/>
        <path class="cls-3" d="m222.79,41.07l-1.61-.73c0,.21-.02.41-.07.6s-.11.38-.19.55c-.22.49-.49.87-.8,1.12-.31.25-.65.39-1.04.41-.39.02-.81-.08-1.27-.29l-1.26-.57.68-1.5,1.12.51c.24.11.45.17.63.17.19,0,.35-.04.49-.15.14-.11.27-.29.38-.53.07-.15.11-.29.14-.43.03-.14.03-.28.02-.4l-2-.9.68-1.5,4.76,2.15-.67,1.48Z"/>
        <path class="cls-3" d="m224.55,37.17l-3.59-1.62-.73,1.6-1.17-.53,2.13-4.71,1.17.53-.73,1.6,3.59,1.62-.68,1.5Z"/>
        <path class="cls-3" d="m226.32,33.26l-4.76-2.15.68-1.5,1.49.67.54-1.2c.3-.65.65-1.08,1.08-1.29.42-.21.89-.19,1.42.04.33.15.59.36.77.63s.27.59.28.95c0,.36-.08.74-.26,1.14l-1.22,2.7Zm2.38-5.26l-4.76-2.15.68-1.5,4.76,2.15-.68,1.5Zm-2.68,3.34l.42-.93c.12-.27.17-.51.12-.71-.04-.2-.18-.35-.42-.46-.24-.11-.44-.11-.61,0-.17.11-.31.3-.44.57l-.42.93,1.34.6Z"/>
        <path class="cls-3" d="m223.53,65.32c-.34.75-.77,1.32-1.29,1.72-.52.4-1.11.62-1.75.67-.65.05-1.32-.09-2.04-.41-.72-.33-1.28-.75-1.67-1.28-.39-.52-.61-1.12-.65-1.78-.04-.66.1-1.37.44-2.11.15-.33.32-.63.51-.9s.4-.52.63-.73c.23-.21.46-.37.69-.47l.96,1.02c-.35.2-.65.44-.88.71-.23.27-.43.59-.59.95-.29.65-.34,1.24-.12,1.76.21.52.68.94,1.4,1.26.72.33,1.35.4,1.87.22.53-.18.94-.62,1.25-1.3.12-.26.21-.53.28-.79.07-.26.11-.53.13-.8l.48.59-1.85-.84-.65,1.44-1.11-.5,1.23-2.72,3.37,1.52c0,.27,0,.56-.06.87-.05.31-.12.63-.22.96-.1.33-.21.64-.35.94Z"/>
        <path class="cls-3" d="m226.31,59.15c-.23.52-.54.92-.92,1.22-.38.29-.8.46-1.27.5-.47.04-.95-.06-1.45-.28-.51-.23-.9-.53-1.17-.91-.28-.38-.43-.8-.46-1.28-.03-.47.08-.97.31-1.49s.54-.92.91-1.21c.37-.29.79-.46,1.26-.5.47-.04.95.05,1.46.28.5.23.89.53,1.17.91s.43.81.47,1.28c.03.47-.07.97-.3,1.49Zm-1.14-.52c.15-.33.15-.64,0-.94-.14-.3-.43-.55-.88-.75-.44-.2-.82-.25-1.13-.16-.31.1-.54.31-.69.63-.15.33-.16.64-.02.93.13.29.42.54.86.74s.82.25,1.14.16.55-.3.7-.63Z"/>
        <path class="cls-3" d="m229.49,52.12c-.34.75-.77,1.32-1.29,1.72-.52.4-1.11.62-1.75.67s-1.32-.09-2.04-.41c-.72-.33-1.28-.75-1.67-1.28-.39-.52-.61-1.12-.65-1.78-.04-.66.1-1.37.44-2.11.15-.33.32-.63.51-.9.19-.27.4-.52.63-.73s.46-.37.69-.47l.96,1.02c-.35.2-.65.44-.88.71-.23.27-.43.59-.59.95-.29.65-.34,1.24-.12,1.76.21.52.68.94,1.4,1.26.72.33,1.35.4,1.87.22.53-.18.95-.62,1.25-1.3.12-.26.21-.53.28-.79.07-.26.11-.53.13-.8l.48.59-1.85-.84-.65,1.44-1.11-.5,1.23-2.72,3.37,1.52c.01.27,0,.56-.06.87s-.12.63-.22.96c-.1.33-.21.64-.35.94Z"/>
        <path class="cls-3" d="m232.03,46.5c-.27.6-.63.97-1.07,1.12-.45.15-.97.08-1.58-.19l-5.02-2.27.68-1.5,4.95,2.24c.16.07.31.11.44.12.13,0,.25-.02.34-.09.1-.07.18-.17.24-.31.04-.08.07-.16.1-.24.03-.08.05-.16.06-.24l1.13.47c-.02.16-.06.31-.09.45-.04.14-.09.29-.16.45Z"/>
        <path class="cls-3" d="m233.77,42.66c-.24.52-.54.92-.92,1.22-.38.29-.8.46-1.27.5-.47.04-.95-.05-1.45-.28-.51-.23-.9-.53-1.17-.91-.28-.38-.43-.8-.46-1.28-.03-.47.07-.97.31-1.49.23-.52.54-.92.91-1.21.37-.29.79-.46,1.26-.5.47-.04.95.05,1.46.28.5.23.89.53,1.17.91.28.38.43.81.47,1.28.03.47-.07.97-.3,1.49Zm-1.14-.52c.15-.33.15-.64,0-.94s-.43-.55-.88-.75c-.44-.2-.82-.25-1.13-.16-.31.1-.54.31-.69.63-.15.33-.16.64-.02.93.13.29.42.54.86.74.44.2.82.25,1.14.16.32-.09.55-.3.7-.63Z"/>
        <path class="cls-3" d="m236.73,36.11c-.17.38-.42.68-.73.89-.31.21-.66.3-1.04.27l.02-.04.93.42-.63,1.4-6.77-3.06.68-1.5,2.84,1.29-.03.06c-.22-.24-.36-.54-.41-.89s.01-.72.18-1.1c.19-.43.47-.75.81-.97s.74-.33,1.19-.34c.45,0,.92.11,1.42.33.5.22.9.51,1.2.85.29.34.47.72.54,1.13.06.41,0,.83-.2,1.27Zm-1.32-.07c.15-.33.15-.65.01-.94s-.44-.55-.89-.75c-.45-.21-.84-.26-1.15-.17-.31.09-.54.3-.69.64-.15.33-.15.64-.02.93.14.3.43.55.89.75.45.2.83.26,1.15.17.32-.09.55-.3.7-.63Z"/>
        <path class="cls-3" d="m238.89,31.32c-.16.35-.37.64-.63.85-.26.22-.55.35-.85.41-.3.06-.6.02-.89-.12-.35-.16-.58-.38-.7-.66-.12-.29-.14-.66-.05-1.11s.29-1.02.6-1.7l.26-.57.78.35-.24.53c-.11.25-.2.47-.26.66-.06.19-.09.35-.1.49,0,.14.01.25.06.33.05.09.13.16.24.21.19.08.36.08.53,0,.17-.09.3-.25.41-.48.09-.19.12-.38.11-.58-.02-.19-.08-.37-.2-.54-.11-.16-.27-.29-.47-.38l-1.06-.48c-.28-.13-.51-.14-.7-.04s-.35.32-.51.66c-.11.25-.19.53-.25.85-.05.32-.07.67-.04,1.04l-1.16-.06c-.03-.24-.03-.51,0-.79.03-.29.08-.57.15-.86.08-.29.17-.56.29-.82.22-.49.48-.86.77-1.13.3-.27.63-.42,1.01-.45.38-.03.81.06,1.29.28l2.8,1.27-.6,1.33-.95-.43v-.02c.19.15.33.33.43.54.09.21.14.43.14.68s-.06.5-.19.77Z"/>
        <path class="cls-3" d="m241.52,25.52c-.27.6-.63.97-1.07,1.12-.44.15-.97.08-1.58-.19l-5.02-2.27.68-1.5,4.95,2.24c.16.07.31.11.44.12.13,0,.25-.03.34-.09.1-.07.18-.17.24-.31.04-.08.07-.16.1-.24.03-.08.05-.16.06-.24l1.13.47c-.03.16-.06.31-.09.45-.04.14-.09.29-.17.45Z"/>
      </g>
      <g>
        <path class="cls-3" d="m151.58,63.71l-8.14-.04.74-1.64,6.17.16-.13.29-4.2-4.53.72-1.59,5.4,6.09-.57,1.26Z"/>
        <path class="cls-3" d="m154.41,57.73c-.13.29-.28.55-.44.8-.16.25-.33.46-.51.65-.18.19-.36.34-.55.45l-.82-.8c.17-.12.34-.27.5-.43s.3-.34.43-.53c.13-.19.24-.39.33-.59.14-.3.2-.54.18-.72-.02-.18-.1-.3-.24-.36-.12-.05-.23-.05-.34,0-.1.06-.21.17-.31.33l-.64.98c-.26.4-.56.65-.9.77-.33.12-.67.09-1.02-.06-.31-.14-.55-.35-.7-.63-.16-.28-.23-.61-.21-1,.02-.39.13-.81.33-1.27.11-.24.23-.46.38-.67.14-.21.3-.4.46-.57.17-.17.34-.3.53-.4l.8.82c-.15.08-.3.2-.45.33-.14.14-.27.29-.39.46s-.21.33-.29.49c-.14.31-.2.56-.18.74.02.18.1.3.25.37.11.05.22.05.32,0,.1-.05.21-.15.31-.31l.63-.96c.29-.43.59-.7.91-.83s.67-.11,1.04.06c.33.15.57.36.72.65.15.29.22.62.19,1-.02.38-.13.79-.33,1.23Z"/>
        <path class="cls-3" d="m156.97,52.08c-.27.59-.6,1.05-.99,1.37-.39.32-.83.51-1.29.56-.47.05-.96-.04-1.46-.27-.48-.22-.86-.51-1.14-.89-.28-.38-.44-.8-.48-1.27-.05-.47.04-.96.27-1.46.21-.47.49-.83.85-1.09.35-.26.75-.4,1.21-.43.46-.03.94.08,1.44.3l.38.17-1.63,3.6-.8-.36,1.13-2.5.08.2c-.4-.18-.74-.22-1.02-.13-.28.09-.49.3-.64.62-.11.24-.15.46-.12.68.03.22.12.42.28.6.16.18.38.34.67.47l.11.05c.33.15.62.22.87.21.26,0,.48-.1.68-.27.2-.17.37-.41.51-.73.11-.25.19-.52.24-.82.05-.3.05-.58,0-.85l1.17.05c.07.33.07.69,0,1.08-.06.39-.17.75-.32,1.09Z"/>
        <path class="cls-3" d="m159.54,46.12l-6.77-3.06,1.23-2.72c.34-.76.77-1.35,1.28-1.76s1.08-.64,1.71-.7c.63-.05,1.3.08,2.02.4.72.32,1.27.74,1.64,1.25.38.51.58,1.09.6,1.75.02.65-.13,1.36-.48,2.12l-1.23,2.72Zm-.57-2.09l.5-1.1c.32-.71.38-1.31.18-1.83-.2-.51-.65-.93-1.36-1.25-.71-.32-1.32-.38-1.84-.19-.51.2-.93.64-1.24,1.34l-.5,1.1,4.26,1.92Z"/>
        <path class="cls-3" d="m164.07,36.37c-.23.52-.54.92-.92,1.21-.38.29-.8.46-1.27.5-.47.04-.95-.05-1.45-.28-.51-.23-.9-.53-1.17-.91-.28-.38-.43-.8-.46-1.28-.03-.48.08-.97.31-1.49.23-.52.54-.92.91-1.21.37-.29.79-.46,1.26-.5s.95.05,1.46.28c.5.22.89.53,1.17.91s.43.81.47,1.28c.03.47-.07.97-.3,1.49Zm-1.14-.52c.15-.33.15-.64,0-.94-.14-.3-.43-.55-.88-.75-.44-.2-.82-.25-1.13-.16-.31.1-.54.31-.69.63-.15.33-.16.64-.02.93.13.3.42.54.86.74.44.2.82.25,1.14.16.32-.09.55-.3.7-.63Z"/>
        <path class="cls-3" d="m165.58,32.74l-4.77-2.15.63-1.4.92.42-.02.05c-.17-.19-.3-.39-.38-.61-.08-.22-.12-.46-.1-.71.01-.25.08-.5.19-.75.16-.36.39-.63.68-.81.29-.17.63-.23,1.01-.18l-.03.07c-.25-.27-.4-.59-.46-.97-.06-.38,0-.76.17-1.15.17-.37.38-.64.64-.82.26-.18.57-.26.93-.25s.77.13,1.24.34l2.8,1.27-.67,1.49-2.77-1.25c-.31-.14-.57-.2-.76-.16-.19.03-.35.18-.46.43-.08.19-.11.37-.09.55.03.18.1.34.23.49.13.15.31.27.54.38l2.58,1.17-.67,1.48-2.77-1.25c-.31-.14-.57-.19-.76-.15-.2.04-.35.18-.46.42-.08.19-.11.37-.08.55.03.18.11.35.23.49.13.15.3.27.52.37l2.59,1.17-.67,1.48Z"/>
        <path class="cls-3" d="m170.46,22.23c-.16.35-.37.64-.63.85-.26.21-.55.35-.85.41-.3.06-.6.02-.9-.12-.35-.16-.58-.38-.7-.66-.12-.29-.14-.66-.05-1.11s.29-1.02.6-1.7l.26-.57.78.35-.24.53c-.11.25-.2.47-.26.66-.06.19-.09.35-.1.49,0,.14.01.25.06.34.05.09.13.16.24.21.19.08.36.08.53,0,.17-.09.3-.25.41-.48.09-.19.12-.38.11-.58s-.08-.37-.2-.53c-.11-.16-.27-.29-.47-.38l-1.07-.48c-.28-.13-.51-.14-.7-.04s-.35.32-.5.66c-.11.25-.2.54-.25.86-.05.32-.06.67-.04,1.04l-1.16-.06c-.03-.24-.03-.51,0-.79.02-.29.08-.57.15-.86.08-.29.17-.56.29-.82.22-.49.48-.86.77-1.13.29-.27.63-.42,1.01-.45.38-.03.81.06,1.29.28l2.8,1.27-.6,1.33-.95-.43v-.02c.2.15.33.33.43.54.09.21.14.43.14.68,0,.24-.06.5-.19.77Z"/>
        <path class="cls-3" d="m161.74,66.82l-6.77-3.06.53-1.16,6.17-1.51-.07.15-4.55-2.06.64-1.42,6.77,3.06-.54,1.19-6.12,1.48.07-.14,4.52,2.05-.64,1.42Z"/>
        <path class="cls-3" d="m166.34,56.95c-.27.59-.6,1.05-.99,1.37-.39.32-.82.51-1.29.56-.47.05-.96-.04-1.46-.27-.48-.22-.86-.51-1.14-.89-.28-.38-.44-.8-.48-1.27-.04-.47.04-.96.27-1.46.21-.47.49-.83.85-1.09.35-.26.75-.4,1.21-.43s.94.08,1.44.3l.38.17-1.63,3.6-.8-.36,1.13-2.5.08.2c-.4-.18-.74-.22-1.01-.13s-.49.3-.64.62c-.11.24-.15.46-.12.68.03.22.12.42.28.6s.38.34.67.47l.11.05c.33.15.62.22.87.21.25,0,.48-.1.68-.27.2-.17.37-.41.51-.73.11-.25.19-.52.25-.82.05-.3.05-.58,0-.85l1.17.05c.07.33.07.69,0,1.08-.06.39-.17.75-.32,1.09Z"/>
        <path class="cls-3" d="m168.75,51.61c-.32.7-.72,1.14-1.21,1.32-.49.18-1.06.12-1.71-.17l-1.77-.8-.41.91-1.12-.5.43-.95-1.35-.61.66-1.45,1.35.61.68-1.5,1.12.5-.68,1.5,1.72.78c.28.12.51.15.71.08.2-.07.36-.25.49-.53.04-.1.08-.2.1-.32s.05-.24.06-.36l1.18.28c0,.19-.01.39-.06.6-.05.21-.11.42-.2.62Z"/>
        <path class="cls-3" d="m170.04,48.47l-5.59-.33.68-1.5,3.75.36-.06.12-2.71-2.66.46-1.02,3.78.29-.05.11-2.75-2.57.65-1.43,3.94,3.97-.56,1.25-3.97-.23.18-.39,2.81,2.79-.56,1.25Z"/>
        <path class="cls-3" d="m174.36,39.21c-.23.52-.54.92-.92,1.21-.38.29-.8.46-1.27.5-.47.04-.95-.05-1.45-.28-.51-.23-.9-.53-1.17-.91-.28-.38-.43-.8-.46-1.28-.03-.48.08-.97.31-1.49.23-.52.54-.92.91-1.21.37-.29.79-.46,1.26-.5.47-.04.95.05,1.46.28.5.23.89.53,1.17.91.28.38.44.81.47,1.28.03.47-.07.97-.3,1.49Zm-1.14-.52c.15-.33.15-.64,0-.94-.14-.3-.43-.55-.88-.75-.44-.2-.82-.25-1.13-.16-.31.1-.54.31-.69.63s-.16.64-.02.93c.13.29.42.54.86.74.44.2.82.25,1.14.16.32-.09.55-.3.7-.63Z"/>
        <path class="cls-3" d="m175.86,35.59l-4.76-2.15.63-1.38,1.18.54-.02.04c-.34-.26-.56-.57-.66-.93-.1-.36-.07-.75.09-1.18l.19-.53,1.35.48-.32.93c-.13.38-.14.7-.03.97.11.27.33.48.65.62l2.37,1.07-.68,1.51Z"/>
        <path class="cls-3" d="m177.77,31.38l-6.77-3.06.68-1.5,4.01,1.81v-.03s-1.22-2.58-1.22-2.58l.79-1.75,1.56,3.35-.51-.25,3.77-1.06-.8,1.78-2.84.85v.03s2.02.92,2.02.92l-.68,1.5Z"/>
      </g>
      <g>
        <path class="cls-3" d="m25.85,51.6c-.34.75-.77,1.32-1.29,1.72-.52.4-1.11.62-1.75.67-.65.05-1.33-.09-2.04-.41-.72-.33-1.28-.75-1.67-1.28-.39-.52-.61-1.12-.65-1.78-.04-.66.1-1.37.44-2.11.15-.33.32-.63.51-.9.19-.28.4-.52.63-.73.23-.21.46-.37.69-.47l.96,1.01c-.35.2-.65.44-.88.71-.23.27-.43.59-.59.95-.3.65-.34,1.24-.12,1.75.21.52.68.94,1.4,1.26.72.33,1.35.4,1.88.22.53-.18.94-.62,1.25-1.3.12-.26.21-.52.28-.79.07-.26.11-.53.13-.79l.48.58-1.85-.84-.65,1.44-1.11-.5,1.23-2.72,3.37,1.53c0,.27,0,.56-.06.87-.05.31-.12.63-.22.96-.1.33-.21.64-.35.94Z"/>
        <path class="cls-3" d="m29.08,44.45c-.23.51-.52.93-.88,1.27-.35.34-.75.59-1.19.75-.44.16-.91.22-1.42.19-.5-.03-1.02-.17-1.54-.4-.53-.24-.97-.54-1.33-.89-.35-.36-.61-.75-.79-1.19-.17-.44-.25-.9-.22-1.38.02-.49.15-.98.38-1.49s.52-.93.87-1.27c.35-.34.74-.59,1.18-.75.44-.16.91-.22,1.41-.19.5.03,1.01.17,1.54.41.53.24.98.54,1.33.89s.62.75.8,1.18.25.9.23,1.39c-.02.49-.15.99-.38,1.49Zm-1.31-.59c.17-.38.23-.74.18-1.08-.05-.34-.21-.66-.47-.95-.26-.29-.62-.54-1.08-.75-.47-.21-.9-.32-1.28-.33-.39,0-.73.09-1.02.28s-.52.48-.69.86c-.17.37-.23.73-.18,1.08.05.35.2.67.46.95.26.29.62.54,1.09.75.46.21.89.32,1.28.32.39,0,.73-.09,1.03-.28.3-.2.53-.48.7-.85Z"/>
        <path class="cls-3" d="m30.72,40.78l-1.29-.47.31-.82c.07-.18.1-.33.09-.48s-.07-.27-.16-.38c-.09-.12-.23-.21-.4-.29l-4.75-2.15.69-1.52,4.78,2.16c.42.19.74.43.97.72.23.29.35.62.38,1,.02.38-.05.8-.22,1.26l-.39.97Z"/>
        <path class="cls-3" d="m32.32,37l-5.37-6.16.57-1.27,8.18-.04-.7,1.55-2.25-.04.76-.4-1.82,4.02-.2-.83,1.52,1.65-.7,1.54Zm-3.51-6.05l2.38,2.56-.48.08,1.36-3.01.25.42-3.5-.1-.02.04Z"/>
        <path class="cls-3" d="m33.07,60.93l-6.77-3.06.69-1.52,2.71,1.22,1.41-3.11-2.71-1.22.69-1.53,6.77,3.06-.69,1.53-2.8-1.26-1.41,3.11,2.79,1.26-.69,1.52Z"/>
        <path class="cls-3" d="m30.79,50.91l-1.39-.63.73-1.61,1.39.63-.73,1.62Zm5.69,2.49l-4.76-2.15.68-1.5,4.76,2.15-.68,1.5Z"/>
        <path class="cls-3" d="m37.72,50.66l-4.76-2.15.63-1.38,1.18.53-.02.04c-.34-.26-.56-.57-.66-.93-.1-.36-.07-.75.09-1.18l.19-.53,1.35.48-.32.93c-.13.38-.14.7-.03.97.11.27.33.48.65.63l2.37,1.07-.68,1.51Z"/>
        <path class="cls-3" d="m33.93,43.95l-1.39-.63.73-1.61,1.39.63-.73,1.61Zm5.69,2.49l-4.76-2.15.68-1.5,4.76,2.15-.68,1.5Z"/>
        <path class="cls-3" d="m40.86,43.71l-4.76-2.15.64-1.41.91.41-.02.05c-.26-.3-.41-.64-.44-1.02-.04-.38.03-.75.19-1.12.17-.38.39-.67.66-.86.26-.19.58-.28.94-.27.36,0,.78.12,1.24.33l2.8,1.27-.68,1.5-2.75-1.24c-.22-.1-.41-.15-.56-.16s-.3.03-.41.11c-.12.08-.21.2-.29.38-.09.21-.13.41-.11.6.02.19.09.37.22.53.12.16.29.29.5.38l2.6,1.18-.68,1.5Z"/>
        <path class="cls-3" d="m46.42,36.3c-.19.42-.42.81-.7,1.15-.27.35-.57.62-.89.82l-.88-.86c.18-.13.35-.27.52-.44.17-.16.31-.34.44-.53.13-.19.24-.38.32-.57.2-.45.26-.83.17-1.13-.09-.31-.33-.55-.72-.73l-.66-.3v-.03c.25.25.39.56.44.93.05.37,0,.74-.17,1.11-.19.43-.46.76-.8,1-.34.24-.73.36-1.17.38-.44.02-.89-.08-1.36-.29-.47-.21-.84-.49-1.12-.83-.27-.34-.43-.71-.48-1.12-.05-.41.02-.83.22-1.26.17-.38.41-.67.72-.87.31-.2.63-.29.98-.27v.03s-.9-.4-.9-.4l.64-1.42,4.15,1.88c.53.24.92.54,1.2.91.27.37.41.79.42,1.27.01.48-.11,1-.37,1.57Zm-3.07-1.5c.15-.33.16-.65.03-.95-.13-.3-.39-.53-.77-.71-.38-.17-.72-.21-1.03-.11s-.54.31-.69.65-.16.65-.03.95c.13.3.39.53.76.7.38.17.73.21,1.04.11.31-.1.54-.31.69-.65Z"/>
      </g>
      <line class="cls-4" x1=".89" y1=".89" x2="20.76" y2=".89"/>
      <line class="cls-4" x1="43.07" y1=".89" x2="62.94" y2=".89"/>
      <line class="cls-4" x1="80.97" y1=".89" x2="96.08" y2=".89"/>
      <line class="cls-4" x1="113.35" y1=".89" x2="151.97" y2=".89"/>
      <line class="cls-4" x1="174.39" y1=".89" x2="213.01" y2=".89"/>
      <line class="cls-4" x1="235.44" y1=".89" x2="274.06" y2=".89"/>
      <line class="cls-4" x1="292.74" y1=".89" x2="331.36" y2=".89"/>
      <line class="cls-4" x1="354.28" y1=".89" x2="383.76" y2=".89"/>
      <g>
        <line class="cls-6" x1="72.04" y1="1.6" x2="72.04" y2="7.81"/>
        <line class="cls-5" x1="72.04" y1="22.27" x2="72.04" y2="72.87"/>
        <line class="cls-6" x1="72.04" y1="80.1" x2="72.04" y2="86.31"/>
      </g>
    </g>
  </g>
</svg>